<svg width="24" height="25" viewBox="0 0 24 25" fill="none" xmlns="http://www.w3.org/2000/svg">
<path d="M12.5 3.5C12.5 3.22386 12.2761 3 12 3C11.7239 3 11.5 3.22386 11.5 3.5H12.5ZM14.3293 6.62629C14.5371 6.44445 14.5581 6.12857 14.3763 5.92075C14.1944 5.71293 13.8786 5.69187 13.6707 5.87371L14.3293 6.62629ZM10.3293 5.87371C10.1214 5.69187 9.80555 5.71293 9.62371 5.92075C9.44187 6.12857 9.46293 6.44445 9.67075 6.62629L10.3293 5.87371ZM11.5 21.5C11.5 21.7761 11.7239 22 12 22C12.2761 22 12.5 21.7761 12.5 21.5H11.5ZM9.67075 18.3737C9.46293 18.5556 9.44187 18.8714 9.62371 19.0793C9.80555 19.2871 10.1214 19.3081 10.3293 19.1263L9.67075 18.3737ZM13.6707 19.1263C13.8786 19.3081 14.1944 19.2871 14.3763 19.0793C14.5581 18.8714 14.5371 18.5556 14.3293 18.3737L13.6707 19.1263ZM20.0439 8.43301C20.2831 8.29494 20.365 7.98914 20.227 7.75C20.0889 7.51085 19.7831 7.42891 19.5439 7.56698L20.0439 8.43301ZM18.2511 11.5803C18.5125 11.6694 18.7966 11.5297 18.8857 11.2683C18.9747 11.0069 18.835 10.7228 18.5736 10.6338L18.2511 11.5803ZM16.9029 7.73994C16.9564 7.46904 16.7803 7.20601 16.5094 7.15244C16.2385 7.09887 15.9754 7.27505 15.9219 7.54595L16.9029 7.73994ZM3.95605 16.567C3.71691 16.7051 3.63497 17.0109 3.77304 17.25C3.91111 17.4892 4.21691 17.5711 4.45605 17.433L3.95605 16.567ZM5.74887 13.4197C5.48749 13.3306 5.2034 13.4703 5.11434 13.7317C5.02528 13.9931 5.16499 14.2772 5.42638 14.3662L5.74887 13.4197ZM7.09712 17.2601C7.04355 17.531 7.21973 17.794 7.49063 17.8476C7.76152 17.9011 8.02456 17.7249 8.07813 17.4541L7.09712 17.2601ZM19.5439 17.4328C19.7831 17.5708 20.0889 17.4889 20.227 17.2498C20.365 17.0106 20.2831 16.7048 20.0439 16.5667L19.5439 17.4328ZM15.9219 17.4538C15.9754 17.7247 16.2385 17.9009 16.5094 17.8473C16.7803 17.7937 16.9564 17.5307 16.9029 17.2598L15.9219 17.4538ZM18.5736 14.366C18.835 14.2769 18.9747 13.9928 18.8857 13.7315C18.7966 13.4701 18.5125 13.3304 18.2511 13.4194L18.5736 14.366ZM4.45605 7.56724C4.21691 7.42917 3.91111 7.5111 3.77304 7.75025C3.63497 7.9894 3.71691 8.29519 3.95605 8.43326L4.45605 7.56724ZM8.07813 7.5462C8.02456 7.27531 7.76152 7.09913 7.49063 7.1527C7.21973 7.20627 7.04355 7.4693 7.09712 7.7402L8.07813 7.5462ZM5.42638 10.634C5.16499 10.7231 5.02528 11.0072 5.11434 11.2685C5.20339 11.5299 5.48749 11.6696 5.74887 11.5806L5.42638 10.634ZM11.5 3.5V8H12.5V3.5H11.5ZM11.5 8V10.5H12.5V8H11.5ZM12.3293 8.37629L14.3293 6.62629L13.6707 5.87371L11.6707 7.62371L12.3293 8.37629ZM12.3293 7.62371L10.3293 5.87371L9.67075 6.62629L11.6707 8.37629L12.3293 7.62371ZM12.5 21.5V17H11.5V21.5H12.5ZM12.5 17V14.5H11.5L11.5 17H12.5ZM11.6707 16.6237L9.67075 18.3737L10.3293 19.1263L12.3293 17.3763L11.6707 16.6237ZM11.6707 17.3763L13.6707 19.1263L14.3293 18.3737L12.3293 16.6237L11.6707 17.3763ZM19.5439 7.56698L15.6468 9.81698L16.1468 10.683L20.0439 8.43301L19.5439 7.56698ZM15.6468 9.81698L13.4818 11.067L13.9818 11.933L16.1468 10.683L15.6468 9.81698ZM15.7356 10.7233L18.2511 11.5803L18.5736 10.6338L16.0581 9.77671L15.7356 10.7233ZM16.3873 10.347L16.9029 7.73994L15.9219 7.54595L15.4063 10.153L16.3873 10.347ZM4.45605 17.433L8.35317 15.183L7.85317 14.317L3.95605 16.567L4.45605 17.433ZM8.35317 15.183L10.5182 13.933L10.0182 13.067L7.85317 14.317L8.35317 15.183ZM8.26442 14.2767L5.74887 13.4197L5.42638 14.3662L7.94192 15.2233L8.26442 14.2767ZM7.61267 14.653L7.09712 17.2601L8.07813 17.4541L8.59367 14.847L7.61267 14.653ZM20.0439 16.5667L16.1468 14.3167L15.6468 15.1828L19.5439 17.4328L20.0439 16.5667ZM16.1468 14.3167L13.9818 13.0667L13.4818 13.9328L15.6468 15.1828L16.1468 14.3167ZM15.4063 14.8467L15.9219 17.4538L16.9029 17.2598L16.3873 14.6528L15.4063 14.8467ZM16.0581 15.223L18.5736 14.366L18.2511 13.4194L15.7356 14.2765L16.0581 15.223ZM3.95605 8.43326L7.85317 10.6833L8.35317 9.81724L4.45605 7.56724L3.95605 8.43326ZM7.85317 10.6833L10.0182 11.9333L10.5182 11.0672L8.35317 9.81724L7.85317 10.6833ZM8.59367 10.1533L8.07813 7.5462L7.09712 7.7402L7.61267 10.3472L8.59367 10.1533ZM7.94192 9.77696L5.42638 10.634L5.74887 11.5806L8.26442 10.7235L7.94192 9.77696ZM13.5 12.5C13.5 13.3284 12.8284 14 12 14V15C13.3807 15 14.5 13.8807 14.5 12.5H13.5ZM12 14C11.1716 14 10.5 13.3284 10.5 12.5H9.5C9.5 13.8807 10.6193 15 12 15V14ZM10.5 12.5C10.5 11.6716 11.1716 11 12 11V10C10.6193 10 9.5 11.1193 9.5 12.5H10.5ZM12 11C12.8284 11 13.5 11.6716 13.5 12.5H14.5C14.5 11.1193 13.3807 10 12 10V11Z" fill="#2D3686"/>
</svg>
