<svg width="62" height="62" viewBox="0 0 62 62" fill="none" xmlns="http://www.w3.org/2000/svg">
<path d="M2.66797 59.334H33.8346C37.1833 59.334 40.4993 58.6744 43.5931 57.3929C46.6869 56.1114 49.498 54.2331 51.8659 51.8652C54.2338 49.4973 56.1121 46.6862 57.3936 43.5924C58.6751 40.4986 59.3346 37.1827 59.3346 33.834C59.3346 30.4853 58.6751 27.1694 57.3936 24.0756C56.1121 20.9818 54.2338 18.1707 51.8659 15.8028C49.498 13.4349 46.6869 11.5566 43.5931 10.2751C40.4993 8.99356 37.1833 8.33398 33.8346 8.33398C20.7078 8.33398 9.7428 18.2507 8.33464 31.0007M49.418 12.584L52.2513 9.75065M12.5846 9.75065L15.418 12.584" stroke="#C04F2F" stroke-width="4.25" stroke-linecap="round" stroke-linejoin="round"/>
<path d="M43.7513 22.4994L35.4213 30.8293C35.0293 30.4234 34.5603 30.0997 34.0418 29.8769C33.5233 29.6542 32.9656 29.5369 32.4013 29.532C31.8369 29.5271 31.2773 29.6347 30.755 29.8484C30.2327 30.0621 29.7582 30.3776 29.3591 30.7767C28.9601 31.1757 28.6445 31.6502 28.4308 32.1725C28.2171 32.6949 28.1096 33.2545 28.1145 33.8188C28.1194 34.3831 28.2366 34.9408 28.4594 35.4593C28.6821 35.9778 29.0059 36.4468 29.4118 36.8389C30.2091 37.6361 31.2904 38.084 32.418 38.084C33.5455 38.084 34.6269 37.6361 35.4241 36.8389C36.2214 36.0416 36.6693 34.9602 36.6693 33.8327C36.6693 32.7052 36.2214 31.6238 35.4241 30.8265M32.418 6.91602V2.66602M26.7513 2.66602H38.0846M2.66797 39.4994H11.168M2.66797 50.8327H16.8346" stroke="#C04F2F" stroke-width="4.25" stroke-linecap="round" stroke-linejoin="round"/>
</svg>
