<svg width="177" height="152" viewBox="0 0 177 152" fill="none" xmlns="http://www.w3.org/2000/svg">
<circle cx="88" cy="65.5" r="62.5" fill="#48BE51"/>
<path d="M47.3418 64.6215C47.3398 71.9565 49.2191 79.1185 52.7927 85.4313L47 107L68.6443 101.212C74.6309 104.536 81.3383 106.277 88.1545 106.278H88.1724C110.674 106.278 128.99 87.6053 129 64.6543C129.004 53.533 124.761 43.0751 117.052 35.2072C109.344 27.34 99.0931 23.0051 88.1707 23C65.6667 23 47.3514 41.6716 47.3421 64.6215" fill="url(#paint0_linear_2433_9893)"/>
<path d="M45.3595 64.6129C45.3571 72.1234 47.328 79.4553 51.0751 85.918L45 108L67.6996 102.075C73.9541 105.47 80.996 107.26 88.1616 107.262H88.1801C111.779 107.262 130.99 88.143 131 64.647C131.004 53.26 126.554 42.5523 118.47 34.4973C110.385 26.4434 99.6345 22.0047 88.1801 22C64.5771 22 45.3689 41.1165 45.3595 64.6129ZM58.8779 84.805L58.0303 83.4655C54.4674 77.8256 52.5868 71.308 52.5895 64.6156C52.5969 45.086 68.562 29.1971 88.1935 29.1971C97.7005 29.2011 106.635 32.8907 113.355 39.5848C120.075 46.2796 123.773 55.179 123.77 64.6443C123.762 84.1739 107.796 100.065 88.1801 100.065H88.166C81.7788 100.061 75.5145 98.3538 70.0515 95.1268L68.7515 94.3592L55.281 97.8752L58.8779 84.805Z" fill="url(#paint1_linear_2433_9893)"/>
<path d="M77.9322 46.8582C77.1396 45.0913 76.3054 45.0557 75.5517 45.0247C74.9345 44.998 74.229 45 73.5241 45C72.8185 45 71.6722 45.2662 70.7032 46.3274C69.7332 47.3896 67 49.9565 67 55.1772C67 60.3978 70.7912 65.4436 71.3197 66.1523C71.8489 66.8596 78.6387 77.916 89.3921 82.1694C98.3292 85.7042 100.148 85.0012 102.088 84.8239C104.027 84.6473 108.347 82.2577 109.228 79.7798C110.11 77.3023 110.11 75.1786 109.846 74.7348C109.582 74.2926 108.876 74.0271 107.818 73.4966C106.76 72.9662 101.558 70.3987 100.589 70.0445C99.6187 69.6907 98.9135 69.5141 98.208 70.5766C97.5024 71.6375 95.4764 74.0271 94.8589 74.7348C94.242 75.4441 93.6245 75.5324 92.5668 75.0016C91.5081 74.4692 88.1009 73.35 84.0586 69.7353C80.9135 66.9226 78.7902 63.4491 78.173 62.3866C77.5558 61.3257 78.1069 60.7507 78.6374 60.2219C79.1127 59.7465 79.6957 58.9828 80.2252 58.3634C80.7527 57.7437 80.9288 57.3015 81.2816 56.5939C81.6347 55.8855 81.4579 55.2658 81.1939 54.735C80.9288 54.2043 78.8729 48.9563 77.9322 46.8582Z" fill="white"/>
<rect x="3" y="117" width="171" height="32" rx="15.7513" fill="#48BE51"/>
<path d="M18.595 135.307C18.595 135.907 18.445 136.419 18.1451 136.844C17.8497 137.264 17.4344 137.585 16.8991 137.806C16.3638 138.028 15.7339 138.138 15.0094 138.138C14.6264 138.138 14.2642 138.12 13.9227 138.083C13.5812 138.046 13.2674 137.993 12.9813 137.924C12.6952 137.855 12.4437 137.769 12.2268 137.668V136.539C12.5729 136.683 12.9951 136.816 13.4935 136.941C13.9919 137.061 14.5134 137.121 15.0579 137.121C15.5655 137.121 15.9947 137.054 16.3454 136.92C16.6961 136.782 16.9614 136.586 17.1414 136.332C17.326 136.073 17.4183 135.764 17.4183 135.404C17.4183 135.058 17.3421 134.77 17.1898 134.539C17.0376 134.304 16.7838 134.091 16.4284 133.902C16.0777 133.708 15.5978 133.503 14.9887 133.286C14.5595 133.134 14.1811 132.968 13.8535 132.788C13.5258 132.603 13.2513 132.396 13.0298 132.165C12.8082 131.934 12.6398 131.666 12.5244 131.362C12.4137 131.057 12.3583 130.709 12.3583 130.317C12.3583 129.777 12.4945 129.315 12.7667 128.932C13.0436 128.545 13.4243 128.249 13.9088 128.046C14.398 127.839 14.9587 127.735 15.5909 127.735C16.1308 127.735 16.6292 127.786 17.086 127.887C17.5475 127.989 17.9697 128.125 18.3527 128.295L17.9859 129.306C17.6213 129.154 17.2337 129.027 16.823 128.925C16.4169 128.824 15.997 128.773 15.5632 128.773C15.1294 128.773 14.7625 128.838 14.4626 128.967C14.1673 129.091 13.9411 129.269 13.7842 129.5C13.6273 129.731 13.5489 130.005 13.5489 130.324C13.5489 130.679 13.6227 130.974 13.7704 131.21C13.9227 131.445 14.1626 131.655 14.4903 131.839C14.8225 132.019 15.2609 132.209 15.8055 132.407C16.4007 132.624 16.906 132.855 17.3214 133.099C17.7367 133.339 18.0528 133.635 18.2697 133.985C18.4866 134.331 18.595 134.772 18.595 135.307ZM23.5304 138.138C22.8474 138.138 22.2452 137.998 21.7237 137.716C21.2023 137.435 20.7962 137.006 20.5055 136.429C20.2147 135.852 20.0694 135.125 20.0694 134.248C20.0694 133.33 20.2217 132.58 20.5262 131.999C20.8354 131.413 21.26 130.979 21.7999 130.697C22.3398 130.416 22.9535 130.275 23.6411 130.275C24.0195 130.275 24.3841 130.314 24.7348 130.393C25.0901 130.467 25.3808 130.561 25.6069 130.677L25.2608 131.639C25.0301 131.546 24.7625 131.463 24.4579 131.39C24.1579 131.316 23.8765 131.279 23.6134 131.279C23.0874 131.279 22.649 131.392 22.2983 131.618C21.9522 131.844 21.6914 132.176 21.5161 132.615C21.3453 133.053 21.26 133.593 21.26 134.234C21.26 134.848 21.343 135.372 21.5091 135.806C21.6799 136.24 21.9314 136.572 22.2636 136.803C22.6005 137.029 23.0204 137.142 23.5234 137.142C23.9249 137.142 24.2872 137.1 24.6102 137.017C24.9332 136.929 25.2262 136.828 25.4893 136.713V137.737C25.2355 137.866 24.9517 137.965 24.6379 138.035C24.3287 138.104 23.9595 138.138 23.5304 138.138ZM30.7361 130.275C30.8884 130.275 31.0476 130.284 31.2137 130.303C31.3799 130.317 31.5275 130.337 31.6567 130.365L31.5114 131.431C31.3868 131.399 31.2483 131.373 31.0961 131.355C30.9438 131.336 30.8007 131.327 30.6669 131.327C30.3623 131.327 30.0739 131.39 29.8017 131.514C29.534 131.634 29.2987 131.809 29.0956 132.04C28.8926 132.266 28.7334 132.541 28.618 132.864C28.5026 133.182 28.4449 133.538 28.4449 133.93V138H27.289V130.414H28.2442L28.3688 131.812H28.4173C28.5742 131.53 28.7634 131.274 28.9849 131.043C29.2064 130.808 29.4625 130.621 29.7532 130.483C30.0485 130.344 30.3762 130.275 30.7361 130.275ZM34.2386 130.414V138H33.0896V130.414H34.2386ZM33.6779 127.576C33.8671 127.576 34.0287 127.638 34.1625 127.762C34.3009 127.882 34.3701 128.072 34.3701 128.33C34.3701 128.584 34.3009 128.773 34.1625 128.898C34.0287 129.022 33.8671 129.085 33.6779 129.085C33.4795 129.085 33.3134 129.022 33.1796 128.898C33.0504 128.773 32.9858 128.584 32.9858 128.33C32.9858 128.072 33.0504 127.882 33.1796 127.762C33.3134 127.638 33.4795 127.576 33.6779 127.576ZM39.5962 130.275C40.2423 130.275 40.796 130.418 41.2575 130.704C41.719 130.99 42.072 131.392 42.3165 131.909C42.5611 132.421 42.6834 133.021 42.6834 133.708V134.421H37.4435C37.4573 135.312 37.6788 135.99 38.108 136.456C38.5372 136.922 39.1417 137.156 39.9215 137.156C40.4015 137.156 40.826 137.112 41.1952 137.024C41.5644 136.936 41.9474 136.807 42.3442 136.636V137.647C41.9612 137.818 41.5805 137.942 41.2021 138.021C40.8283 138.099 40.3853 138.138 39.8731 138.138C39.144 138.138 38.5072 137.991 37.9626 137.695C37.4227 137.395 37.0028 136.957 36.7028 136.38C36.4029 135.803 36.2529 135.097 36.2529 134.262C36.2529 133.445 36.389 132.739 36.6613 132.144C36.9382 131.544 37.3258 131.083 37.8242 130.76C38.3272 130.437 38.9179 130.275 39.5962 130.275ZM39.5824 131.216C38.9686 131.216 38.4795 131.417 38.1149 131.819C37.7504 132.22 37.5335 132.781 37.4643 133.501H41.479C41.4744 133.048 41.4028 132.652 41.2644 132.31C41.1306 131.964 40.9252 131.696 40.6484 131.507C40.3715 131.313 40.0161 131.216 39.5824 131.216ZM43.9917 134.705V133.681H47.425V134.705H43.9917ZM52.7964 130.275C53.6962 130.275 54.3769 130.497 54.8384 130.94C55.2998 131.378 55.5306 132.084 55.5306 133.058V138H54.3954V133.134C54.3954 132.502 54.25 132.029 53.9593 131.715C53.6732 131.401 53.2325 131.244 52.6372 131.244C51.7973 131.244 51.2066 131.482 50.8652 131.957C50.5237 132.432 50.3529 133.122 50.3529 134.027V138H49.2039V130.414H50.1314L50.3045 131.507H50.3668C50.5283 131.24 50.7336 131.016 50.9828 130.836C51.232 130.651 51.5112 130.513 51.8204 130.42C52.1296 130.324 52.4549 130.275 52.7964 130.275ZM60.8189 130.275C61.465 130.275 62.0187 130.418 62.4802 130.704C62.9417 130.99 63.2947 131.392 63.5393 131.909C63.7838 132.421 63.9061 133.021 63.9061 133.708V134.421H58.6662C58.6801 135.312 58.9016 135.99 59.3307 136.456C59.7599 136.922 60.3644 137.156 61.1443 137.156C61.6242 137.156 62.0487 137.112 62.4179 137.024C62.7871 136.936 63.1701 136.807 63.567 136.636V137.647C63.1839 137.818 62.8032 137.942 62.4248 138.021C62.051 138.099 61.608 138.138 61.0958 138.138C60.3667 138.138 59.7299 137.991 59.1854 137.695C58.6454 137.395 58.2255 136.957 57.9256 136.38C57.6256 135.803 57.4756 135.097 57.4756 134.262C57.4756 133.445 57.6118 132.739 57.884 132.144C58.1609 131.544 58.5485 131.083 59.0469 130.76C59.5499 130.437 60.1406 130.275 60.8189 130.275ZM60.8051 131.216C60.1913 131.216 59.7022 131.417 59.3376 131.819C58.9731 132.22 58.7562 132.781 58.687 133.501H62.7017C62.6971 133.048 62.6256 132.652 62.4871 132.31C62.3533 131.964 62.148 131.696 61.8711 131.507C61.5942 131.313 61.2389 131.216 60.8051 131.216ZM73.1054 130.275C74.0514 130.275 74.8059 130.6 75.3689 131.251C75.9319 131.902 76.2134 132.88 76.2134 134.186C76.2134 135.049 76.0842 135.773 75.8257 136.359C75.5673 136.946 75.2028 137.389 74.7321 137.689C74.266 137.988 73.7145 138.138 73.0777 138.138C72.6762 138.138 72.3232 138.085 72.0187 137.979C71.7141 137.873 71.4534 137.73 71.2365 137.55C71.0196 137.37 70.8396 137.174 70.6966 136.962H70.6135C70.6273 137.142 70.6435 137.359 70.662 137.612C70.685 137.866 70.6966 138.088 70.6966 138.277V141.392H69.5406V130.414H70.4889L70.6412 131.535H70.6966C70.8442 131.304 71.0242 131.094 71.2365 130.905C71.4488 130.711 71.7072 130.559 72.0117 130.448C72.3209 130.333 72.6855 130.275 73.1054 130.275ZM72.9047 131.244C72.3786 131.244 71.9541 131.346 71.631 131.549C71.3126 131.752 71.0796 132.056 70.9319 132.462C70.7842 132.864 70.7058 133.369 70.6966 133.978V134.2C70.6966 134.841 70.7658 135.384 70.9042 135.827C71.0473 136.27 71.2803 136.606 71.6033 136.837C71.931 137.068 72.3694 137.183 72.9185 137.183C73.3892 137.183 73.7815 137.056 74.0952 136.803C74.409 136.549 74.6421 136.196 74.7944 135.743C74.9513 135.287 75.0297 134.763 75.0297 134.172C75.0297 133.277 74.8544 132.566 74.5036 132.04C74.1575 131.51 73.6246 131.244 72.9047 131.244ZM81.1418 130.275C81.7878 130.275 82.3416 130.418 82.8031 130.704C83.2645 130.99 83.6176 131.392 83.8621 131.909C84.1067 132.421 84.229 133.021 84.229 133.708V134.421H78.9891C79.0029 135.312 79.2244 135.99 79.6536 136.456C80.0827 136.922 80.6873 137.156 81.4671 137.156C81.9471 137.156 82.3716 137.112 82.7408 137.024C83.1099 136.936 83.493 136.807 83.8898 136.636V137.647C83.5068 137.818 83.1261 137.942 82.7477 138.021C82.3739 138.099 81.9309 138.138 81.4187 138.138C80.6896 138.138 80.0527 137.991 79.5082 137.695C78.9683 137.395 78.5484 136.957 78.2484 136.38C77.9485 135.803 77.7985 135.097 77.7985 134.262C77.7985 133.445 77.9346 132.739 78.2069 132.144C78.4838 131.544 78.8714 131.083 79.3698 130.76C79.8728 130.437 80.4634 130.275 81.1418 130.275ZM81.128 131.216C80.5142 131.216 80.0251 131.417 79.6605 131.819C79.2959 132.22 79.0791 132.781 79.0098 133.501H83.0246C83.02 133.048 82.9484 132.652 82.81 132.31C82.6762 131.964 82.4708 131.696 82.1939 131.507C81.9171 131.313 81.5617 131.216 81.128 131.216ZM102.358 127.88L99.7826 138H97.3392L95.9686 132.684C95.9409 132.582 95.904 132.428 95.8579 132.22C95.8117 132.013 95.7633 131.786 95.7125 131.542C95.6618 131.293 95.6156 131.06 95.5741 130.843C95.5372 130.621 95.5118 130.446 95.4979 130.317C95.4841 130.446 95.4564 130.619 95.4149 130.836C95.378 131.053 95.3341 131.283 95.2834 131.528C95.2372 131.773 95.1911 132.001 95.1449 132.213C95.0988 132.426 95.0619 132.587 95.0342 132.698L93.6705 138H91.234L88.6521 127.88H90.7633L92.0577 133.404C92.0946 133.57 92.1362 133.768 92.1823 133.999C92.2331 134.23 92.2815 134.472 92.3277 134.726C92.3784 134.975 92.4223 135.217 92.4592 135.453C92.5007 135.683 92.5307 135.884 92.5492 136.055C92.5723 135.88 92.6023 135.677 92.6392 135.446C92.6761 135.21 92.7153 134.973 92.7568 134.733C92.803 134.488 92.8491 134.262 92.8953 134.054C92.9414 133.847 92.983 133.678 93.0199 133.549L94.4943 127.88H96.5224L97.9968 133.549C98.0291 133.674 98.066 133.842 98.1075 134.054C98.1537 134.262 98.1998 134.488 98.246 134.733C98.2921 134.977 98.3336 135.217 98.3705 135.453C98.4121 135.683 98.4421 135.884 98.4605 136.055C98.4928 135.824 98.5367 135.545 98.5921 135.217C98.652 134.885 98.7143 134.555 98.7789 134.228C98.8482 133.9 98.9082 133.625 98.9589 133.404L100.246 127.88H102.358ZM105.576 127.229V129.424C105.576 129.807 105.562 130.171 105.535 130.517C105.512 130.863 105.493 131.108 105.479 131.251H105.59C105.756 130.983 105.952 130.767 106.179 130.6C106.409 130.434 106.663 130.312 106.94 130.234C107.217 130.155 107.514 130.116 107.833 130.116C108.391 130.116 108.878 130.215 109.293 130.414C109.709 130.607 110.032 130.914 110.262 131.334C110.493 131.749 110.609 132.289 110.609 132.954V138H108.497V133.48C108.497 132.926 108.396 132.509 108.193 132.227C107.99 131.946 107.676 131.805 107.251 131.805C106.827 131.805 106.492 131.904 106.248 132.102C106.003 132.296 105.83 132.585 105.729 132.968C105.627 133.346 105.576 133.81 105.576 134.359V138H103.465V127.229H105.576ZM115.952 130.102C116.991 130.102 117.787 130.328 118.34 130.78C118.894 131.233 119.171 131.92 119.171 132.843V138H117.697L117.288 136.948H117.233C117.011 137.225 116.785 137.451 116.555 137.626C116.324 137.802 116.058 137.931 115.758 138.014C115.459 138.097 115.094 138.138 114.665 138.138C114.208 138.138 113.797 138.051 113.433 137.875C113.073 137.7 112.789 137.432 112.581 137.072C112.374 136.708 112.27 136.246 112.27 135.688C112.27 134.867 112.558 134.262 113.135 133.875C113.712 133.482 114.577 133.265 115.731 133.224L117.074 133.182V132.843C117.074 132.437 116.968 132.139 116.755 131.95C116.543 131.761 116.248 131.666 115.869 131.666C115.495 131.666 115.129 131.719 114.769 131.826C114.409 131.932 114.049 132.066 113.689 132.227L112.99 130.801C113.4 130.584 113.86 130.414 114.367 130.289C114.879 130.164 115.408 130.102 115.952 130.102ZM117.074 134.414L116.257 134.442C115.574 134.461 115.099 134.583 114.831 134.809C114.568 135.035 114.436 135.333 114.436 135.702C114.436 136.025 114.531 136.256 114.72 136.394C114.909 136.528 115.156 136.595 115.461 136.595C115.913 136.595 116.294 136.461 116.603 136.193C116.917 135.926 117.074 135.545 117.074 135.051V134.414ZM124.612 136.456C124.842 136.456 125.066 136.433 125.283 136.387C125.505 136.341 125.724 136.283 125.941 136.214V137.785C125.715 137.887 125.433 137.97 125.096 138.035C124.764 138.104 124.399 138.138 124.003 138.138C123.541 138.138 123.126 138.065 122.757 137.917C122.392 137.765 122.104 137.504 121.891 137.135C121.684 136.761 121.58 136.242 121.58 135.577V131.846H120.569V130.953L121.732 130.247L122.341 128.614H123.691V130.261H125.858V131.846H123.691V135.577C123.691 135.873 123.774 136.094 123.94 136.242C124.111 136.385 124.335 136.456 124.612 136.456ZM132.911 135.702C132.911 136.228 132.787 136.673 132.537 137.038C132.293 137.398 131.926 137.672 131.437 137.862C130.948 138.046 130.338 138.138 129.609 138.138C129.069 138.138 128.606 138.104 128.218 138.035C127.835 137.965 127.447 137.85 127.055 137.689V135.944C127.475 136.133 127.925 136.29 128.405 136.415C128.889 136.535 129.314 136.595 129.679 136.595C130.089 136.595 130.382 136.535 130.558 136.415C130.738 136.29 130.828 136.129 130.828 135.93C130.828 135.801 130.791 135.686 130.717 135.584C130.648 135.478 130.495 135.36 130.26 135.231C130.025 135.097 129.655 134.924 129.152 134.712C128.668 134.509 128.269 134.304 127.955 134.096C127.646 133.888 127.415 133.644 127.263 133.362C127.115 133.076 127.041 132.714 127.041 132.276C127.041 131.56 127.318 131.023 127.872 130.663C128.43 130.298 129.176 130.116 130.108 130.116C130.588 130.116 131.044 130.164 131.478 130.261C131.917 130.358 132.367 130.513 132.828 130.725L132.191 132.248C131.808 132.082 131.446 131.946 131.104 131.839C130.768 131.733 130.424 131.68 130.073 131.68C129.764 131.68 129.531 131.722 129.374 131.805C129.217 131.888 129.139 132.015 129.139 132.186C129.139 132.31 129.178 132.421 129.256 132.518C129.339 132.615 129.496 132.723 129.727 132.843C129.962 132.959 130.306 133.108 130.758 133.293C131.197 133.473 131.577 133.662 131.9 133.861C132.224 134.054 132.473 134.297 132.648 134.587C132.823 134.874 132.911 135.245 132.911 135.702ZM140.92 138L140.186 135.591H136.497L135.763 138H133.451L137.023 127.839H139.646L143.232 138H140.92ZM139.674 133.791L138.94 131.438C138.894 131.281 138.832 131.08 138.753 130.836C138.679 130.587 138.603 130.335 138.525 130.081C138.451 129.823 138.391 129.599 138.345 129.41C138.299 129.599 138.234 129.834 138.151 130.116C138.073 130.393 137.996 130.656 137.923 130.905C137.849 131.154 137.796 131.332 137.763 131.438L137.037 133.791H139.674ZM148.652 130.116C149.524 130.116 150.228 130.455 150.763 131.133C151.303 131.812 151.573 132.806 151.573 134.117C151.573 134.994 151.446 135.732 151.192 136.332C150.938 136.927 150.587 137.377 150.14 137.682C149.692 137.986 149.178 138.138 148.596 138.138C148.222 138.138 147.902 138.092 147.634 138C147.366 137.903 147.138 137.781 146.949 137.633C146.76 137.481 146.596 137.319 146.457 137.149H146.347C146.384 137.333 146.411 137.522 146.43 137.716C146.448 137.91 146.457 138.099 146.457 138.284V141.406H144.346V130.261H146.063L146.36 131.265H146.457C146.596 131.057 146.764 130.866 146.963 130.69C147.161 130.515 147.399 130.377 147.676 130.275C147.957 130.169 148.282 130.116 148.652 130.116ZM147.973 131.805C147.604 131.805 147.311 131.881 147.094 132.033C146.877 132.186 146.718 132.414 146.617 132.719C146.52 133.023 146.467 133.408 146.457 133.875V134.103C146.457 134.601 146.504 135.024 146.596 135.37C146.693 135.716 146.852 135.979 147.073 136.159C147.3 136.339 147.609 136.429 148.001 136.429C148.324 136.429 148.589 136.339 148.797 136.159C149.005 135.979 149.159 135.716 149.261 135.37C149.367 135.019 149.42 134.592 149.42 134.089C149.42 133.332 149.302 132.762 149.067 132.379C148.832 131.996 148.467 131.805 147.973 131.805ZM157.622 130.116C158.495 130.116 159.198 130.455 159.734 131.133C160.274 131.812 160.544 132.806 160.544 134.117C160.544 134.994 160.417 135.732 160.163 136.332C159.909 136.927 159.558 137.377 159.111 137.682C158.663 137.986 158.149 138.138 157.567 138.138C157.193 138.138 156.873 138.092 156.605 138C156.337 137.903 156.109 137.781 155.92 137.633C155.73 137.481 155.567 137.319 155.428 137.149H155.317C155.354 137.333 155.382 137.522 155.401 137.716C155.419 137.91 155.428 138.099 155.428 138.284V141.406H153.317V130.261H155.034L155.331 131.265H155.428C155.567 131.057 155.735 130.866 155.934 130.69C156.132 130.515 156.37 130.377 156.646 130.275C156.928 130.169 157.253 130.116 157.622 130.116ZM156.944 131.805C156.575 131.805 156.282 131.881 156.065 132.033C155.848 132.186 155.689 132.414 155.587 132.719C155.491 133.023 155.437 133.408 155.428 133.875V134.103C155.428 134.601 155.474 135.024 155.567 135.37C155.664 135.716 155.823 135.979 156.044 136.159C156.27 136.339 156.58 136.429 156.972 136.429C157.295 136.429 157.56 136.339 157.768 136.159C157.976 135.979 158.13 135.716 158.232 135.37C158.338 135.019 158.391 134.592 158.391 134.089C158.391 133.332 158.273 132.762 158.038 132.379C157.802 131.996 157.438 131.805 156.944 131.805ZM164.06 134.643H162.371L162.018 127.88H164.413L164.06 134.643ZM161.99 137.01C161.99 136.576 162.108 136.272 162.343 136.096C162.583 135.921 162.872 135.833 163.209 135.833C163.536 135.833 163.818 135.921 164.053 136.096C164.293 136.272 164.413 136.576 164.413 137.01C164.413 137.425 164.293 137.725 164.053 137.91C163.818 138.095 163.536 138.187 163.209 138.187C162.872 138.187 162.583 138.095 162.343 137.91C162.108 137.725 161.99 137.425 161.99 137.01Z" fill="white"/>
<rect x="105" y="10" width="44" height="44" rx="22" fill="#F32D2D"/>
<path d="M128.646 40H126.342V30.8105C126.342 30.5046 126.345 30.1986 126.352 29.8926C126.358 29.5866 126.365 29.2871 126.371 28.9941C126.384 28.7012 126.4 28.4212 126.42 28.1543C126.283 28.304 126.114 28.4668 125.912 28.6426C125.717 28.8184 125.508 29.0007 125.287 29.1895L123.646 30.498L122.494 29.043L126.732 25.7227H128.646V40Z" fill="white"/>
<defs>
<linearGradient id="paint0_linear_2433_9893" x1="4147" y1="8423" x2="4147" y2="23" gradientUnits="userSpaceOnUse">
<stop stop-color="#1FAF38"/>
<stop offset="1" stop-color="#60D669"/>
</linearGradient>
<linearGradient id="paint1_linear_2433_9893" x1="4345" y1="8622" x2="4345" y2="22" gradientUnits="userSpaceOnUse">
<stop stop-color="#F9F9F9"/>
<stop offset="1" stop-color="white"/>
</linearGradient>
</defs>
</svg>
